<svg xmlns="http://www.w3.org/2000/svg" xmlns:xlink="http://www.w3.org/1999/xlink"><defs><clipPath id="a"><path fill="currentColor" d="M0 0h48v48H0z"/></clipPath><clipPath id="a"><path fill="currentColor" d="M0 0h48v48H0z"/></clipPath></defs><symbol id="icon_burger" viewBox="0 0 24 24"><g fill="none"><path d="M3 12h18M3 6h18M3 18h18" stroke="currentColor" stroke-width="2" stroke-linecap="round" stroke-linejoin="round"/></g></symbol><symbol id="icon_tg" viewBox="0 0 48 48"><g fill="none"><g clip-path="url(#a)"><path fill-rule="evenodd" clip-rule="evenodd" d="M48 24a24 24 0 1 1-48 0 24 24 0 0 1 48 0Zm-23.14-6.28c-2.33.97-7 2.98-14 6.03-1.13.45-1.73.89-1.78 1.32-.1.73.82 1.02 2.07 1.41l.52.17c1.23.4 2.88.86 3.73.88.78.02 1.65-.3 2.6-.96 6.54-4.41 9.92-6.64 10.13-6.69.15-.03.36-.08.5.05.14.12.12.36.1.42-.08.39-3.67 3.73-5.53 5.45-.58.54-1 .92-1.08 1.01-.18.2-.38.38-.56.56-1.14 1.1-2 1.92.05 3.26.98.65 1.76 1.18 2.54 1.72.86.58 1.71 1.16 2.81 1.88l.81.56c1 .71 1.9 1.35 3 1.25.64-.06 1.3-.66 1.64-2.46.79-4.25 2.35-13.46 2.71-17.26.04-.33 0-.76-.04-.94-.03-.19-.1-.46-.34-.65a1.58 1.58 0 0 0-.93-.28c-.9.01-2.28.5-8.95 3.27Z" fill="currentColor"/></g></g></symbol><symbol id="icon_vk" viewBox="0 0 48 48"><g fill="none"><g clip-path="url(#a)"><path fill-rule="evenodd" clip-rule="evenodd" d="M3.37 3.37C0 6.75 0 12.17 0 23.04v1.92c0 10.86 0 16.3 3.37 19.67C6.75 48 12.17 48 23.04 48h1.92c10.86 0 16.3 0 19.67-3.37C48 41.25 48 35.83 48 24.96v-1.92c0-10.86 0-16.3-3.37-19.67C41.25 0 35.83 0 24.96 0h-1.92C12.18 0 6.74 0 3.37 3.37ZM8.1 14.6c.26 12.48 6.5 19.98 17.44 19.98h.62v-7.14c4.02.4 7.06 3.34 8.28 7.14h5.68a15.79 15.79 0 0 0-8.22-10.02c2.56-1.48 6.16-5.08 7.02-9.96h-5.16c-1.12 3.96-4.44 7.56-7.6 7.9v-7.9H21v13.84c-3.2-.8-7.24-4.68-7.42-13.84H8.1Z" fill="currentColor"/></g></g></symbol><symbol id="icon_wa" viewBox="0 0 48 48"><g fill="none"><path d="m0 48 3.37-12.33A23.82 23.82 0 0 1 23.98 0c6.37 0 12.34 2.48 16.83 6.98a23.82 23.82 0 0 1-28.2 37.72L0 48Zm13.2-7.61c3.35 1.99 6.55 3.18 10.78 3.18A19.8 19.8 0 0 0 43.76 23.8a19.76 19.76 0 1 0-39.54-.02c0 4.45 1.3 7.79 3.49 11.27l-2 7.3 7.48-1.96Zm22.77-10.93c-.15-.25-.55-.4-1.14-.7-.6-.3-3.52-1.73-4.06-1.93-.55-.2-.94-.3-1.34.3-.4.6-1.54 1.93-1.88 2.33-.35.4-.7.44-1.3.15-.59-.3-2.5-.93-4.77-2.95a17.9 17.9 0 0 1-3.3-4.12c-.35-.6-.04-.92.25-1.21.27-.27.6-.7.9-1.05.3-.34.4-.59.6-.99.2-.4.1-.74-.06-1.04-.15-.3-1.33-3.22-1.83-4.41-.48-1.16-.97-1-1.34-1.02l-1.14-.02c-.4 0-1.04.15-1.58.74-.54.6-2.08 2.04-2.08 4.96 0 2.93 2.13 5.75 2.43 6.15.3.4 4.19 6.4 10.15 8.97 1.42.62 2.52.98 3.39 1.26 1.42.45 2.72.38 3.74.23 1.14-.17 3.52-1.44 4.01-2.82.5-1.4.5-2.58.35-2.83Z" fill="currentColor"/></g></symbol><symbol id="icon_yt" viewBox="0 0 48 48"><g fill="none"><path d="M47.52 14.4s-.47-3.3-1.91-4.76c-1.83-1.91-3.87-1.92-4.81-2.04-6.71-.48-16.8-.48-16.8-.48s-10.09 0-16.8.48c-.94.12-2.98.13-4.8 2.04C.94 11.09.48 14.4.48 14.4S0 18.3 0 22.17v3.64c0 3.88.48 7.77.48 7.77s.47 3.31 1.9 4.76c1.83 1.92 4.23 1.85 5.3 2.06 3.84.36 16.32.48 16.32.48s10.09-.02 16.8-.5c.94-.11 2.98-.12 4.8-2.04 1.45-1.45 1.92-4.76 1.92-4.76s.48-3.88.48-7.77v-3.64c0-3.88-.48-7.77-.48-7.77ZM19.04 30.23v-13.5l12.97 6.77-12.97 6.73Z" fill="currentColor"/></g></symbol></svg>