<svg fill="none" xmlns="http://www.w3.org/2000/svg" width="48" height="48" viewBox="0 0 48 48"><g clip-path="url(#a)"><path fill-rule="evenodd" clip-rule="evenodd" d="M48 24a24 24 0 1 1-48 0 24 24 0 0 1 48 0Zm-23.14-6.28c-2.33.97-7 2.98-14 6.03-1.13.45-1.73.89-1.78 1.32-.1.73.82 1.02 2.07 1.41l.52.17c1.23.4 2.88.86 3.73.88.78.02 1.65-.3 2.6-.96 6.54-4.41 9.92-6.64 10.13-6.69.15-.03.36-.08.5.05.14.12.12.36.1.42-.08.39-3.67 3.73-5.53 5.45-.58.54-1 .92-1.08 1.01-.18.2-.38.38-.56.56-1.14 1.1-2 1.92.05 3.26.98.65 1.76 1.18 2.54 1.72.86.58 1.71 1.16 2.81 1.88l.81.56c1 .71 1.9 1.35 3 1.25.64-.06 1.3-.66 1.64-2.46.79-4.25 2.35-13.46 2.71-17.26.04-.33 0-.76-.04-.94-.03-.19-.1-.46-.34-.65a1.58 1.58 0 0 0-.93-.28c-.9.01-2.28.5-8.95 3.27Z" fill="currentColor"/></g><defs><clipPath id="a"><path fill="currentColor" d="M0 0h48v48H0z"/></clipPath></defs></svg>
