<svg fill="none" xmlns="http://www.w3.org/2000/svg" width="48" height="48" viewBox="0 0 48 48"><path d="M47.52 14.4s-.47-3.3-1.91-4.76c-1.83-1.91-3.87-1.92-4.81-2.04-6.71-.48-16.8-.48-16.8-.48s-10.09 0-16.8.48c-.94.12-2.98.13-4.8 2.04C.94 11.09.48 14.4.48 14.4S0 18.3 0 22.17v3.64c0 3.88.48 7.77.48 7.77s.47 3.31 1.9 4.76c1.83 1.92 4.23 1.85 5.3 2.06 3.84.36 16.32.48 16.32.48s10.09-.02 16.8-.5c.94-.11 2.98-.12 4.8-2.04 1.45-1.45 1.92-4.76 1.92-4.76s.48-3.88.48-7.77v-3.64c0-3.88-.48-7.77-.48-7.77ZM19.04 30.23v-13.5l12.97 6.77-12.97 6.73Z" fill="currentColor"/></svg>
