<svg fill="none" xmlns="http://www.w3.org/2000/svg" viewBox="0 0 48 48"><path d="m0 48 3.37-12.33A23.82 23.82 0 0 1 23.98 0c6.37 0 12.34 2.48 16.83 6.98a23.82 23.82 0 0 1-28.2 37.72L0 48Zm13.2-7.61c3.35 1.99 6.55 3.18 10.78 3.18A19.8 19.8 0 0 0 43.76 23.8a19.76 19.76 0 1 0-39.54-.02c0 4.45 1.3 7.79 3.49 11.27l-2 7.3 7.48-1.96Zm22.77-10.93c-.15-.25-.55-.4-1.14-.7-.6-.3-3.52-1.73-4.06-1.93-.55-.2-.94-.3-1.34.3-.4.6-1.54 1.93-1.88 2.33-.35.4-.7.44-1.3.15-.59-.3-2.5-.93-4.77-2.95a17.9 17.9 0 0 1-3.3-4.12c-.35-.6-.04-.92.25-1.21.27-.27.6-.7.9-1.05.3-.34.4-.59.6-.99.2-.4.1-.74-.06-1.04-.15-.3-1.33-3.22-1.83-4.41-.48-1.16-.97-1-1.34-1.02l-1.14-.02c-.4 0-1.04.15-1.58.74-.54.6-2.08 2.04-2.08 4.96 0 2.93 2.13 5.75 2.43 6.15.3.4 4.19 6.4 10.15 8.97 1.42.62 2.52.98 3.39 1.26 1.42.45 2.72.38 3.74.23 1.14-.17 3.52-1.44 4.01-2.82.5-1.4.5-2.58.35-2.83Z" fill="#25D366"/></svg>