<svg fill="none" xmlns="http://www.w3.org/2000/svg" viewBox="0 0 48 48"><g clip-path="url(#a)"><path d="M47.04 12.37A6.03 6.03 0 0 0 42.8 8.1c-3.75-1-18.75-1-18.75-1s-15 0-18.76 1a6.03 6.03 0 0 0-4.24 4.27C.05 16.14.05 24 .05 24s0 7.86 1 11.63A6.03 6.03 0 0 0 5.3 39.9c3.76 1 18.76 1 18.76 1s15 0 18.75-1a6.03 6.03 0 0 0 4.24-4.27c1-3.77 1-11.63 1-11.63s0-7.86-1-11.63Z" fill="#FF0302"/><path d="M19.14 31.14V16.86L31.68 24l-12.54 7.14Z" fill="#FEFEFE"/></g><defs><clipPath id="a"><path fill="#fff" d="M0 0h48v48H0z"/></clipPath></defs></svg>