<svg fill="none" xmlns="http://www.w3.org/2000/svg" viewBox="0 0 48 48"><g clip-path="url(#a)"><path d="M24 48a24 24 0 1 0 0-48 24 24 0 0 0 0 48Z" fill="url(#b)"/><path fill-rule="evenodd" clip-rule="evenodd" d="M10.86 23.75c7-3.05 11.67-5.06 14-6.03 6.67-2.77 8.05-3.26 8.95-3.27.2 0 .65.04.93.28.25.2.31.46.34.65.04.18.08.6.04.94-.36 3.8-1.92 13-2.71 17.26-.34 1.8-1 2.4-1.64 2.46-1.4.13-2.46-.92-3.8-1.8-2.12-1.4-3.31-2.26-5.36-3.6-2.37-1.57-.84-2.43.51-3.83.36-.37 6.5-5.95 6.62-6.46.01-.06.03-.3-.11-.42-.14-.13-.35-.08-.5-.05-.21.05-3.59 2.28-10.12 6.7-.96.65-1.83.97-2.6.95-.86-.02-2.51-.48-3.74-.88-1.5-.49-2.7-.75-2.6-1.58.06-.43.66-.87 1.8-1.32Z" fill="#fff"/></g><defs><linearGradient id="b" x1="24" y1="0" x2="24" y2="47.64" gradientUnits="userSpaceOnUse"><stop stop-color="#2AABEE"/><stop offset="1" stop-color="#229ED9"/></linearGradient><clipPath id="a"><path fill="#fff" d="M0 0h48v48H0z"/></clipPath></defs></svg>